<?xml version="1.0" encoding="utf-8"?>
<!-- Generator: Adobe Illustrator 24.1.1, SVG Export Plug-In . SVG Version: 6.00 Build 0)  -->
<svg version="1.1" id="Capa_1" xmlns="http://www.w3.org/2000/svg" xmlns:xlink="http://www.w3.org/1999/xlink" x="0px" y="0px"
	 viewBox="0 0 512 512" style="enable-background:new 0 0 512 512;" xml:space="preserve">
<style type="text/css">
	.st0{fill:#FFFFFF;}
</style>
<g>
	<g>
		<g>
			<path class="st0" d="M432,40h-26V20c0-11-9-20-20-20s-20,9-20,20v20h-91V20c0-11-9-20-20-20c-11,0-20,9-20,20v20h-90V20
				c0-11-9-20-20-20s-20,9-20,20v20H80C35.9,40,0,75.9,0,120v312c0,44.1,35.9,80,80,80h153c11,0,20-9,20-20s-9-20-20-20H80
				c-22.1,0-40-17.9-40-40V120c0-22.1,17.9-40,40-40h25v20c0,11,9,20,20,20s20-9,20-20V80h90v20c0,11,9,20,20,20c11,0,20-9,20-20V80
				h91v20c0,11,9,20,20,20s20-9,20-20V80h26c22.1,0,40,17.9,40,40v114c0,11,9,20,20,20s20-9,20-20V120C512,75.9,476.1,40,432,40z"/>
			<path class="st0" d="M391,270c-66.7,0-121,54.3-121,121s54.3,121,121,121s121-54.3,121-121S457.7,270,391,270z M391,472
				c-44.7,0-81-36.3-81-81s36.3-81,81-81s81,36.3,81,81S435.7,472,391,472z"/>
			<path class="st0" d="M420,371h-9v-21c0-11-9-20-20-20s-20,9-20,20v41c0,11,9,20,20,20h29c11,0,20-9,20-20S431,371,420,371z"/>
			<circle class="st0" cx="212" cy="297" r="20"/>
			<circle class="st0" cx="125" cy="297" r="20"/>
			<circle class="st0" cx="125" cy="384" r="20"/>
			<circle class="st0" cx="212" cy="384" r="20"/>
		</g>
	</g>
</g>
<g>
	<path class="st0" d="M77.7,169.3H58.4v-14.1h56.2v14.1H95.5V218H77.7V169.3z"/>
	<path class="st0" d="M127.5,211.6c-5.2-5.1-7.8-12.3-7.8-21.6v-34.8h17.7v34.2c0,10,4,15.1,11.9,15.1c7.9,0,11.8-5,11.8-15.1v-34.2
		h17.5V190c0,9.3-2.6,16.5-7.8,21.6c-5.2,5.1-12.4,7.6-21.7,7.6S132.7,216.7,127.5,211.6z"/>
	<path class="st0" d="M218.2,201.3h-9.7V218h-17.7v-62.7h28.7c5.7,0,10.6,0.9,14.8,2.8c4.2,1.9,7.4,4.6,9.7,8.1
		c2.3,3.5,3.4,7.6,3.4,12.3c0,4.5-1.1,8.5-3.2,11.9c-2.1,3.4-5.2,6-9.1,7.9l13.5,19.7h-19L218.2,201.3z M226.6,171.6
		c-1.9-1.6-4.6-2.4-8.2-2.4h-9.9v18.4h9.9c3.6,0,6.4-0.8,8.2-2.4c1.9-1.6,2.8-3.8,2.8-6.8C229.4,175.5,228.5,173.3,226.6,171.6z"/>
	<path class="st0" d="M316.8,155.2V218h-14.6l-27.7-33.4V218h-17.4v-62.7h14.6l27.7,33.4v-33.4H316.8z"/>
	<path class="st0" d="M343.1,215c-5.3-2.8-9.4-6.7-12.5-11.7c-3-5-4.5-10.5-4.5-16.8c0-6.2,1.5-11.8,4.5-16.8c3-5,7.2-8.8,12.5-11.7
		c5.3-2.8,11.3-4.2,17.9-4.2c6.6,0,12.6,1.4,17.9,4.2c5.3,2.8,9.4,6.7,12.5,11.7c3,5,4.5,10.5,4.5,16.8c0,6.2-1.5,11.8-4.5,16.8
		c-3,5-7.2,8.8-12.5,11.7c-5.3,2.8-11.3,4.2-17.9,4.2C354.3,219.2,348.4,217.8,343.1,215z M369.6,202.3c2.6-1.5,4.6-3.6,6.1-6.3
		c1.5-2.7,2.2-5.8,2.2-9.4c0-3.5-0.7-6.6-2.2-9.4c-1.5-2.7-3.5-4.8-6.1-6.3c-2.6-1.5-5.4-2.2-8.6-2.2c-3.2,0-6,0.7-8.6,2.2
		c-2.6,1.5-4.6,3.6-6.1,6.3c-1.5,2.7-2.2,5.8-2.2,9.4c0,3.5,0.7,6.6,2.2,9.4c1.5,2.7,3.5,4.8,6.1,6.3c2.6,1.5,5.4,2.2,8.6,2.2
		C364.1,204.5,367,203.8,369.6,202.3z"/>
	<path class="st0" d="M412.4,217.4c-4.8-1.3-8.7-2.9-11.7-5l5.8-13.1c2.8,1.9,6.1,3.3,9.8,4.5c3.7,1.1,7.4,1.7,10.9,1.7
		c6.8,0,10.2-1.7,10.2-5.1c0-1.8-1-3.1-2.9-4c-1.9-0.9-5.1-1.8-9.4-2.7c-4.7-1-8.7-2.1-11.8-3.3c-3.2-1.2-5.9-3-8.2-5.6
		c-2.3-2.6-3.4-6-3.4-10.4c0-3.8,1-7.3,3.1-10.4c2.1-3.1,5.2-5.5,9.4-7.3c4.2-1.8,9.2-2.7,15.3-2.7c4.1,0,8.2,0.5,12.2,1.4
		c4,0.9,7.5,2.3,10.6,4.1l-5.5,13.2c-6-3.2-11.8-4.8-17.4-4.8c-3.5,0-6.1,0.5-7.7,1.6c-1.6,1-2.4,2.4-2.4,4.1c0,1.7,1,2.9,2.9,3.8
		c1.9,0.8,5,1.7,9.2,2.6c4.8,1,8.7,2.1,11.9,3.3c3.1,1.2,5.9,3,8.2,5.6c2.3,2.5,3.5,6,3.5,10.4c0,3.8-1,7.2-3.1,10.2
		c-2.1,3-5.2,5.5-9.4,7.3c-4.2,1.8-9.3,2.7-15.2,2.7C422.1,219.2,417.2,218.6,412.4,217.4z"/>
</g>
</svg>
