<?xml version="1.0" encoding="utf-8"?>
<!-- Generator: Adobe Illustrator 24.1.1, SVG Export Plug-In . SVG Version: 6.00 Build 0)  -->
<svg version="1.1" id="Capa_1" xmlns="http://www.w3.org/2000/svg" xmlns:xlink="http://www.w3.org/1999/xlink" x="0px" y="0px"
	 viewBox="0 0 448 390" style="enable-background:new 0 0 448 390;" xml:space="preserve">
<g>
	<path d="M416,208h-64v48h64V208z M400,240h-32v-16h32V240z"/>
	<path d="M416,272h-64v48h64V272z M400,304h-32v-16h32V304z"/>
	<path d="M336,176V0H112v176H0v214h448V176H336z M112,374H16V192h96V374z M176,374V265.8h40V374H176z M232,374V265.8h40V374H232z
		 M320,374h-32V249.8H160V374h-32V16h192V374z M432,374h-96V192h96V374z"/>
	<path d="M96,208H32v48h64V208z M80,240H48v-16h32V240z"/>
	<path d="M96,272H32v48h64V272z M80,304H48v-16h32V304z"/>
	<g>
		<polygon points="168.6,127.5 216.8,153.3 216.8,134.2 184.6,119.9 184.6,119.5 216.8,105 216.8,85.9 168.6,111.6 		"/>
		<polygon points="230.6,85.9 230.6,104.8 263.4,119.2 263.4,119.7 230.6,134.3 230.6,153.3 279.4,127.5 279.4,111.6 		"/>
		<path d="M224,41.2c-43.2,0-78.4,35.2-78.4,78.4S180.8,198,224,198c43.2,0,78.4-35.2,78.4-78.4S267.2,41.2,224,41.2z M224,184.3
			c-35.7,0-64.7-29-64.7-64.7s29-64.7,64.7-64.7s64.7,29,64.7,64.7S259.7,184.3,224,184.3z"/>
	</g>
</g>
</svg>
